<svg width="500" height="500" viewBox="0 0 481 544" fill="none" xmlns="http://www.w3.org/2000/svg">
<rect width="481" height="544" fill="#E5E5E5"/>
<path d="M480 151.639L235.293 1L1 151.639V404.372L235.293 543L470.744 404.372L480 151.639Z" stroke="black"/>
<path d="M266 413C252.297 419.357 244.394 419 230 413C232.495 425.774 234.47 432.355 248.5 433.5C260.577 433.418 263.891 428.199 266 413Z" fill="black" stroke="black"/>
<path d="M273.5 386.5C270.428 386.203 268.513 386.929 264.5 391C259.466 385.417 259.074 381.966 264.5 375C270.481 371.319 274.133 370.929 281.5 375C287.996 383.26 286.51 386.303 281.5 391C278.773 387.608 277.144 386.118 273.5 386.5Z" fill="black" stroke="black"/>
<path d="M220.5 386C215.745 386.217 213.843 387.408 211.5 391C206.486 386.495 204.949 383.575 211.5 375.5C217.748 370.704 221.252 370.554 227.5 375.5C232.533 382.593 232.85 388.145 227.5 391C225.589 388.24 224.727 386.487 220.5 386Z" fill="black" stroke="black"/>
<path d="M165.5 345.5C193.016 338.668 210.208 338.569 241 341C213.818 359.672 197.571 368.549 165.5 379.5C135.454 382.718 121.428 381.634 101 375C120.594 360.033 132.982 352.506 165.5 345.5Z" fill="black" stroke="black"/>
<path d="M323 344C291.814 338.55 276.63 338.097 251.5 339.5C274.913 360.67 290.323 369.434 323 378C350.957 382.217 365.031 380.343 389 374C369.344 360.339 357.794 352.848 323 344Z" fill="black" stroke="black"/>
<path d="M172.5 253.5C205.319 283.398 217.958 301.038 240.5 332.5C199.615 323.895 178.018 315.807 144.5 288.5C109.46 260.749 99.4394 242.594 80.5 210.5C119.953 218.218 140.381 226.901 172.5 253.5Z" fill="black" stroke="black"/>
<path d="M309.5 256.5C280.082 284.822 268.572 301.27 251.5 331C281.389 320.624 299.313 313.098 335.5 293.5C371.081 269.144 387.251 251.112 407.5 209C366.667 216.707 344.676 224.846 309.5 256.5Z" fill="black" stroke="black"/>
<path d="M243.576 328.01L244 329C261.938 284.034 271.158 257.675 274 192C271.948 144.745 267.284 119.459 244 79.5C222.92 112.691 213.05 133.632 213 192C213.565 257.991 224.43 283.341 243.576 328.01Z" fill="black" stroke="black"/>
</svg>
