<svg width="500" height="500" viewBox="0 0 457 435" fill="none" xmlns="http://www.w3.org/2000/svg">
<rect width="457" height="435" fill="#E5E5E5"/>
<path d="M247 359C233.297 365.357 225.394 365 211 359C213.495 371.774 215.47 378.355 229.5 379.5C241.577 379.418 244.891 374.199 247 359Z" fill="black" stroke="black"/>
<path d="M254.5 332.5C251.428 332.203 249.513 332.929 245.5 337C240.466 331.417 240.074 327.966 245.5 321C251.481 317.319 255.133 316.929 262.5 321C268.996 329.26 267.51 332.303 262.5 337C259.773 333.608 258.144 332.118 254.5 332.5Z" fill="black" stroke="black"/>
<path d="M201.5 332C196.745 332.217 194.843 333.408 192.5 337C187.486 332.495 185.949 329.575 192.5 321.5C198.748 316.704 202.252 316.554 208.5 321.5C213.533 328.593 213.85 334.145 208.5 337C206.589 334.24 205.727 332.487 201.5 332Z" fill="black" stroke="black"/>
<path d="M146.5 291.5C174.016 284.668 191.208 284.569 222 287C194.818 305.672 178.571 314.549 146.5 325.5C116.454 328.718 102.428 327.634 82 321C101.594 306.033 113.982 298.506 146.5 291.5Z" fill="black" stroke="black"/>
<path d="M304 290C272.814 284.55 257.63 284.097 232.5 285.5C255.913 306.67 271.323 315.434 304 324C331.957 328.217 346.031 326.343 370 320C350.344 306.339 338.794 298.848 304 290Z" fill="black" stroke="black"/>
<path d="M153.5 199.5C186.319 229.398 198.958 247.038 221.5 278.5C180.615 269.895 159.018 261.807 125.5 234.5C90.4599 206.749 80.4394 188.594 61.5 156.5C100.953 164.218 121.381 172.901 153.5 199.5Z" fill="black" stroke="black"/>
<path d="M290.5 202.5C261.082 230.822 249.572 247.27 232.5 277C262.389 266.624 280.313 259.098 316.5 239.5C352.081 215.144 368.251 197.112 388.5 155C347.667 162.707 325.676 170.846 290.5 202.5Z" fill="black" stroke="black"/>
<path d="M224.576 274.01L225 275C242.938 230.034 252.158 203.675 255 138C252.948 90.7454 248.284 65.459 225 25.5C203.92 58.6911 194.05 79.6322 194 138C194.565 203.991 205.43 229.341 224.576 274.01Z" fill="black" stroke="black"/>
<path d="M456.5 217.5C456.5 337.323 354.444 434.5 228.5 434.5C102.556 434.5 0.5 337.323 0.5 217.5C0.5 97.6772 102.556 0.5 228.5 0.5C354.444 0.5 456.5 97.6772 456.5 217.5Z" stroke="black"/>
</svg>
